<?xml version="1.0" encoding="utf-8"?>
<!-- Generator: Adobe Illustrator 23.0.1, SVG Export Plug-In . SVG Version: 6.00 Build 0)  -->
<svg version="1.1" id="Capa_1" xmlns="http://www.w3.org/2000/svg" xmlns:xlink="http://www.w3.org/1999/xlink" x="0px" y="0px"
	 viewBox="0 0 2342 768" style="enable-background:new 0 0 2342 768;" xml:space="preserve">
<style type="text/css">
	.st0{fill:#1F2245;}
	.st1{fill:#F3FAFE;}
	.st2{fill:#3BBDEE;}
	.st3{fill:#FFD43D;}
	.st4{fill:#306A99;}
	.st5{fill:#F28E42;}
	.st6{fill:#FFFFFF;}
	.st7{fill:none;}
	.st8{fill:none;stroke:#1F2245;stroke-width:25;stroke-linecap:round;stroke-miterlimit:10;}
	.st9{fill:none;stroke:#1F2245;stroke-width:25;stroke-linecap:round;stroke-miterlimit:10;stroke-dasharray:29.1937,48.6561;}
</style>
<path class="st0" d="M1302.36,426.32c-0.54-2.54-2.92-4.28-5.52-4.28h-224.16c-0.6-0.05-1.2-0.07-1.8-0.07l-120.21,0.09
	c-12.08,0.01-23.08,6.14-29.44,16.41L839.12,571.1c-5.67,9.15-4.89,21.16,2.49,29.57c4.82,5.49,11.92,8.43,19.22,8.43h29.56
	c12.09,0,23.1-6.13,29.46-16.41l14.53-23.47h70.73c12.09,0,23.1-6.13,29.46-16.4l7.57-12.23c10.67-17.23,28.9-28.36,49.11-29.98
	l96.22-7.68c2.83-0.23,5.02-2.59,5.02-5.44c0-1.51-0.61-2.88-1.6-3.86c-0.99-0.99-2.35-1.6-3.86-1.6h-77.38
	c-16.45,0-26.98-17.57-19.17-32.05c0.1-0.18,0.2-0.36,0.29-0.55c3.5-6.52,10.06-10.81,17.44-11.4l189.26-15.11
	c1.41-0.12,2.67-0.76,3.57-1.74C1302.18,429.96,1302.76,428.18,1302.36,426.32z M1025.79,529c-0.67,1.61-1.16,3.29-1.47,5.01h-1.63
	L1025.79,529c1-2.46,2.42-4.75,4.18-6.75L1025.79,529z"/>
<path class="st0" d="M551.18,434.41c-4.23-7.59-12.26-12.31-20.95-12.31H108.31c-2.61,0-4.98,1.74-5.53,4.29
	c-0.4,1.86,0.18,3.64,1.33,4.87c0.9,0.98,2.16,1.62,3.57,1.74l227.77,23.78c12.51,1,19.81,14.2,14.61,25.15
	c-0.29,0.61-0.61,1.21-0.98,1.8c-0.34,0.55-0.71,1.08-1.11,1.58c-1.46,1.88-3.28,3.41-5.32,4.55c-2.59,1.45-5.54,2.24-8.6,2.24
	H218.12c-1.51,0-2.87,0.61-3.86,1.6c-0.99,0.98-1.6,2.35-1.6,3.86c0,2.85,2.19,5.21,5.02,5.44l71.46,11.3
	c17.04,1.37,26.95,19.48,19.61,34.37c-0.35,0.7-0.73,1.4-1.16,2.09c-0.41,0.66-0.85,1.3-1.32,1.91l-11.96,19.32
	c-4.57,7.39-4.79,16.7-0.56,24.3c4.23,7.59,12.26,12.31,20.95,12.31l125.73-0.05c10.83,0,20.7-5.5,26.4-14.71l17.75-28.68
	c0.88-1.42,1.6-2.91,2.15-4.44c0.05-0.13,0.09-0.25,0.13-0.38c1.99-6.23,1.37-13.11-1.89-18.97c-4.24-7.6-12.26-12.32-20.96-12.32
	l-48.91,0.03l0.31-0.5l16.39-26.48h74.65c10.84,0,20.71-5.5,26.42-14.71l17.75-28.68c0.96-1.55,1.73-3.19,2.3-4.89
	C555.09,447.47,554.52,440.41,551.18,434.41z M382.95,543.01c-0.1,0.17-0.19,0.34-0.27,0.51c0,0.01-0.01,0.02-0.01,0.03
	c-1.1,2.56,0.76,5.55,3.67,5.55l77.67-0.05c2.33,0,3.99,1.92,3.99,4c0,0.35-0.05,0.7-0.15,1.05c0,0.01,0,0.02-0.01,0.03
	c-0.09,0.34-0.24,0.67-0.44,1l-17.75,28.68c-2.02,3.26-5.57,5.24-9.4,5.24l-125.72,0.05c-2.33,0-3.99-1.92-3.99-4
	c0-0.51,0.1-1.03,0.32-1.53c0-0.01,0-0.02,0.01-0.04c0.08-0.17,0.17-0.34,0.27-0.51l2.92-4.72l10.03-16.2l26.55-42.89l16.78-27.11
	l27.71-44.76c2.02-3.26,5.58-5.24,9.41-5.24h125.69c2.72,0,4.52,2.6,3.84,5.03c0,0.01-0.01,0.03-0.01,0.04
	c-0.09,0.34-0.24,0.68-0.45,1.01l-17.75,28.68c-2.02,3.26-5.57,5.24-9.41,5.24h-79.63c-3.83,0-7.39,1.98-9.41,5.24L382.95,543.01z"
	/>
<path class="st0" d="M799.37,529c-0.67,1.61-1.16,3.29-1.47,5.01h-1.63L799.37,529z"/>
<path class="st1" d="M934.08,448.99l-82.11,132.63c-2.02,3.26,0.33,7.48,4.16,7.48h30.1c5.07,0,9.78-2.62,12.45-6.94l16.1-26.01
	c2.67-4.31,7.38-6.94,12.45-6.94h73.71c5.07,0,9.78-2.62,12.45-6.94l57.48-92.84c2.02-3.26-0.33-7.48-4.17-7.48l-120.2,0.09
	C941.46,442.06,936.75,444.68,934.08,448.99z M978.49,509.22h-25.85c-3.84,0-6.18-4.21-4.16-7.47l7.89-12.75
	c2.67-4.31,7.38-6.94,12.45-6.94h25.86c3.84,0,6.18,4.21,4.16,7.48l-7.9,12.75C988.27,506.6,983.56,509.22,978.49,509.22z"/>
<path class="st1" d="M533.78,447.68l-17.75,28.68c-2.02,3.26-5.57,5.24-9.41,5.24h-79.63c-3.83,0-7.39,1.98-9.41,5.24l-2.95,4.76
	l-19,30.69l-12.51,20.22c-1.64,2.66,0.27,6.09,3.39,6.09l77.67-0.05c3.12,0,5.03,3.43,3.39,6.08l-4.31,6.97l-13.44,21.71
	c-1.47,2.38-3.76,4.08-6.38,4.81h-0.01c-0.97,0.29-1.97,0.43-3.01,0.43L314.7,588.6c-3.12,0-5.03-3.43-3.39-6.08l2.92-4.72
	l10.03-16.2l26.55-42.89l16.78-27.11l27.71-44.76c2.02-3.26,5.58-5.24,9.41-5.24H530.4C533.52,441.6,535.43,445.03,533.78,447.68z"
	/>
<path class="st1" d="M767.74,441.6c-2.88,0-5.54,1.49-7.06,3.93l-83.73,135.26c-2.11,3.41,0.33,7.82,4.35,7.84l126.04,0.45
	c2.89,0.01,5.57-1.47,7.09-3.93l84-135.71c2.12-3.42-0.34-7.84-4.37-7.84H767.74z M792.47,544.63c-1.51,2.44-4.18,3.92-7.05,3.92
	l-32.26,0.04c-4.03,0-6.49-4.41-4.37-7.84l34.17-55.22c1.52-2.44,4.18-3.93,7.06-3.93h32.24c4.02,0,6.48,4.42,4.37,7.84
	L792.47,544.63z"/>
<path class="st1" d="M722.37,442.1H690.9c-3.78,0-7.29,1.95-9.27,5.17l-26.72,43.17c-1.99,3.21-5.5,5.17-9.27,5.17h-50.67
	c-4.14,0-6.68-4.55-4.5-8.07l23.12-37.36c2.18-3.52-0.35-8.07-4.5-8.07h-31.47c-3.78,0-7.29,1.95-9.27,5.17l-82.81,133.76
	c-2.18,3.52,0.35,8.07,4.5,8.07h31.48c3.78,0,7.29-1.95,9.27-5.17l26.72-43.17c1.99-3.21,5.5-5.17,9.27-5.17h50.66
	c4.14,0,6.68,4.55,4.5,8.07l-23.13,37.36c-2.18,3.52,0.35,8.07,4.5,8.07h31.48c3.78,0,7.29-1.95,9.28-5.17l82.8-133.76
	C729.05,446.65,726.52,442.1,722.37,442.1z"/>
<g>
	<g>
		<path class="st0" d="M409.37,227.7c3.98,0,6.41,4.37,4.32,7.75l-16.65,26.9c-2.06,3.33-5.69,5.35-9.61,5.35H270.67
			c-5.53,0-10.67,2.86-13.59,7.57l-32.33,52.23c-1.94,3.14,0.32,7.2,4.01,7.2h74.04c1.5,0,2.89-0.78,3.68-2.05l2.69-4.35
			c1.78-2.88-0.29-6.6-3.68-6.6h-42.52c-4.25,0-6.85-4.67-4.61-8.28l16.2-26.18c2.13-3.45,5.9-5.54,9.95-5.54h90.82
			c4.25,0,6.84,4.66,4.61,8.27l-47.96,77.48c-2.79,4.5-7.71,7.25-13.01,7.25H156.95c-3.69,0-5.95-4.06-4.01-7.2l81.86-132.23
			c2.91-4.71,8.05-7.57,13.59-7.57H409.37 M409.37,207.7H248.39c-12.55,0-23.99,6.37-30.59,17.04l-81.86,132.24
			c-4.72,7.62-4.94,17.21-0.58,25.04s12.63,12.69,21.59,12.69h162.01c12.31,0,23.53-6.25,30.01-16.72l47.96-77.48
			c2.95-4.77,4.19-10.29,3.7-15.69c5.44-2.52,10.11-6.61,13.4-11.93l16.65-26.9c4.78-7.73,5.01-17.46,0.58-25.4
			C426.86,212.63,418.46,207.7,409.37,207.7L409.37,207.7z"/>
	</g>
	<g>
		<path class="st0" d="M604.74,228.2c3.52,0,5.67,3.86,3.82,6.86l-83.7,135.22c-1.89,3.06-5.24,4.92-8.83,4.92h-33.2
			c-3.52,0-5.67-3.87-3.82-6.86l24.73-39.95c1.81-2.92-0.29-6.69-3.73-6.69H448.6c-4.31,0-8.32,2.23-10.59,5.9l-26.42,42.68
			c-1.89,3.06-5.24,4.92-8.83,4.92h-33.2c-3.52,0-5.67-3.87-3.82-6.86l83.71-135.22c1.89-3.06,5.23-4.92,8.83-4.92H604.74
			 M473.81,281.7h53.82c3.12,0,6.02-1.61,7.66-4.27l1.82-2.94c1.7-2.75-0.28-6.29-3.51-6.29h-53.82c-3.12,0-6.02,1.61-7.66,4.27
			l-1.82,2.94C468.61,278.15,470.58,281.7,473.81,281.7 M604.74,208.2H458.28c-10.6,0-20.26,5.38-25.84,14.39l-83.71,135.22
			c-4.67,7.55-4.89,17.06-0.57,24.81c4.32,7.76,12.52,12.57,21.4,12.57h33.2c10.6,0,20.26-5.38,25.84-14.39l24.21-39.11h19.19
			l-9.98,16.11c-4.67,7.55-4.89,17.06-0.57,24.81c4.32,7.76,12.52,12.57,21.4,12.57h33.2c10.6,0,20.26-5.38,25.84-14.39l83.7-135.22
			c4.67-7.55,4.89-17.06,0.57-24.81C621.82,213.02,613.62,208.2,604.74,208.2L604.74,208.2z"/>
	</g>
	<g>
		<path class="st0" d="M681.06,228.2c3.38,0,5.45,3.71,3.67,6.59l-58.07,93.82c-1.78,2.88,0.29,6.59,3.67,6.59h76.8
			c3.38,0,5.45,3.71,3.67,6.59l-17.47,28.23c-1.99,3.22-5.51,5.18-9.29,5.18H558.53c-3.38,0-5.45-3.71-3.67-6.59l83.71-135.23
			c1.99-3.22,5.51-5.18,9.29-5.18H681.06 M681.06,208.2h-33.2c-10.79,0-20.62,5.48-26.3,14.65l-83.71,135.23
			c-4.64,7.49-4.86,16.93-0.57,24.63c4.29,7.7,12.43,12.48,21.24,12.48h125.51c10.79,0,20.62-5.48,26.3-14.65l17.47-28.23
			c4.64-7.49,4.86-16.93,0.57-24.63s-12.43-12.48-21.24-12.48h-48.65l43.26-69.88c4.64-7.49,4.86-16.93,0.57-24.63
			C698.02,212.98,689.88,208.2,681.06,208.2L681.06,208.2z"/>
	</g>
	<g>
		<path class="st0" d="M1151.26,228.2c4.36,0,6.22,5.54,2.74,8.17l-87.34,66.01c-4.19,3.17-5.86,8.67-4.14,13.64l17.95,51.73
			c1.27,3.65-1.44,7.46-5.31,7.46h-35.79c-2.02,0-3.81-1.28-4.47-3.18l-10.05-28.97c-0.82-2.35-2.99-3.72-5.24-3.72
			c-1.15,0-2.31,0.36-3.32,1.12l-39.49,29.85c-4.21,3.18-9.35,4.9-14.62,4.9H916.8c-4.36,0-6.22-5.54-2.74-8.17l87.34-66
			c4.19-3.17,5.86-8.67,4.14-13.64l-17.94-51.73c-1.27-3.65,1.44-7.46,5.31-7.46h35.78c2.02,0,3.81,1.28,4.47,3.18l10.05,28.98
			c0.82,2.35,2.99,3.72,5.24,3.72c1.15,0,2.31-0.36,3.32-1.12l39.51-29.86c4.21-3.18,9.35-4.9,14.62-4.9H1151.26 M1151.26,208.2
			h-45.35c-9.57,0-19.05,3.18-26.68,8.95l-23.64,17.86l-3.53-10.19c-3.45-9.94-12.84-16.63-23.37-16.63h-35.78
			c-8.27,0-16.08,4.02-20.87,10.77c-4.8,6.74-6.04,15.43-3.33,23.25l16.07,46.31l-82.76,62.54c-8.43,6.37-11.83,17.37-8.47,27.39
			c3.36,10.01,12.71,16.74,23.27,16.74h45.36c9.57,0,19.05-3.18,26.68-8.95l23.62-17.85l3.53,10.17
			c3.45,9.95,12.84,16.63,23.37,16.63h35.79c8.27,0,16.08-4.02,20.87-10.77s6.04-15.43,3.33-23.25l-16.07-46.31l82.76-62.55
			c8.43-6.37,11.83-17.37,8.47-27.39C1171.17,214.93,1161.82,208.2,1151.26,208.2L1151.26,208.2z"/>
	</g>
	<g>
		<path class="st0" d="M1345.57,228.2c3.37,0,4.8,4.28,2.12,6.31l-180.67,136.54c-3.56,2.69-7.9,4.15-12.37,4.15h-49.7
			c-3.37,0-4.8-4.28-2.12-6.31l92.05-69.56c2.85-2.15,3.98-5.89,2.81-9.27l-19.7-56.81c-0.86-2.48,0.98-5.06,3.6-5.06h36.62
			c3.03,0,5.73,1.92,6.73,4.79l10.1,29.12c0.62,1.78,2.27,2.82,3.97,2.82c0.87,0,1.75-0.27,2.52-0.85l41.99-31.73
			c3.56-2.69,7.9-4.15,12.37-4.15H1345.57 M1345.57,208.2h-49.69c-8.76,0-17.43,2.91-24.42,8.19l-24.64,18.62l-2.98-8.58
			c-3.78-10.91-14.08-18.23-25.62-18.23h-36.62c-7.69,0-14.94,3.74-19.4,10.01c-4.46,6.26-5.62,14.34-3.1,21.61l16.9,48.72
			l-85.22,64.4c-8.07,6.1-11.33,16.64-8.12,26.23s12.17,16.04,22.29,16.04h49.7c8.76,0,17.44-2.91,24.43-8.19l180.67-136.54
			c8.07-6.1,11.33-16.64,8.12-26.23C1364.65,214.64,1355.69,208.2,1345.57,208.2L1345.57,208.2z"/>
	</g>
	<g>
		<path class="st0" d="M958.15,228.2c3.52,0,5.67,3.86,3.82,6.86l-83.7,135.22c-1.89,3.06-5.23,4.92-8.83,4.92h-33.2
			c-3.52,0-5.67-3.87-3.82-6.86l24.73-39.95c1.81-2.92-0.29-6.69-3.73-6.69H802c-4.31,0-8.32,2.23-10.59,5.9l-26.42,42.68
			c-1.89,3.06-5.23,4.92-8.83,4.92h-33.2c-3.52,0-5.67-3.87-3.82-6.86l83.71-135.22c1.89-3.06,5.23-4.92,8.83-4.92H958.15
			 M827.22,281.7h53.82c3.12,0,6.02-1.61,7.66-4.27l1.82-2.94c1.7-2.75-0.28-6.29-3.51-6.29H833.2c-3.12,0-6.02,1.61-7.66,4.27
			l-1.82,2.94C822.02,278.15,823.99,281.7,827.22,281.7 M958.15,208.2H811.69c-10.6,0-20.26,5.38-25.84,14.39l-83.71,135.22
			c-4.67,7.55-4.89,17.06-0.57,24.81c4.32,7.76,12.52,12.57,21.4,12.57h33.2c10.6,0,20.26-5.38,25.84-14.39l24.21-39.11h19.19
			l-9.98,16.11c-4.67,7.55-4.89,17.06-0.57,24.81c4.32,7.76,12.52,12.57,21.4,12.57h33.2c10.6,0,20.26-5.38,25.84-14.39l83.7-135.22
			c4.67-7.55,4.89-17.06,0.57-24.81C975.23,213.02,967.03,208.2,958.15,208.2L958.15,208.2z"/>
	</g>
</g>
<path class="st1" d="M375.33,281.7h-90.82c-4.05,0-7.82,2.1-9.95,5.54l-16.2,26.18c-2.24,3.61,0.36,8.28,4.61,8.28h42.52
	c3.39,0,5.46,3.72,3.68,6.6l-2.69,4.35c-0.79,1.27-2.18,2.05-3.68,2.05h-74.04c-3.69,0-5.95-4.06-4.01-7.2l32.33-52.23
	c2.91-4.71,8.05-7.57,13.59-7.57h116.76c3.91,0,7.55-2.02,9.61-5.35l16.65-26.9c2.09-3.38-0.34-7.75-4.32-7.75H248.39
	c-5.53,0-10.67,2.86-13.59,7.57L152.94,367.5c-1.94,3.14,0.31,7.2,4.01,7.2h162.01c5.3,0,10.22-2.74,13.01-7.25l47.96-77.48
	C382.17,286.36,379.58,281.7,375.33,281.7z"/>
<path class="st1" d="M684.04,375.2c3.79,0,7.3-1.96,9.29-5.18l17.47-28.23c1.78-2.88-0.29-6.59-3.67-6.59h-76.8
	c-3.38,0-5.45-3.71-3.67-6.59l58.07-93.82c1.78-2.88-0.29-6.59-3.67-6.59h-33.2c-3.79,0-7.3,1.96-9.29,5.18l-83.71,135.23
	c-1.78,2.88,0.29,6.59,3.67,6.59H684.04z"/>
<path class="st1" d="M1151.26,228.2h-45.35c-5.28,0-10.41,1.72-14.62,4.9l-39.51,29.86c-3,2.27-7.33,0.95-8.56-2.6l-10.05-28.98
	c-0.66-1.9-2.46-3.18-4.47-3.18h-35.78c-3.86,0-6.57,3.81-5.31,7.46l17.94,51.73c1.72,4.96,0.05,10.47-4.14,13.64l-87.34,66
	c-3.48,2.63-1.62,8.17,2.74,8.17h45.36c5.28,0,10.41-1.72,14.62-4.9l39.49-29.85c3-2.27,7.33-0.95,8.56,2.6l10.05,28.97
	c0.66,1.9,2.46,3.18,4.47,3.18h35.79c3.86,0,6.57-3.81,5.31-7.46l-17.95-51.73c-1.72-4.96-0.05-10.47,4.14-13.64l87.34-66.01
	C1157.47,233.74,1155.62,228.2,1151.26,228.2z"/>
<path class="st1" d="M1283.51,232.35l-41.99,31.73c-2.27,1.72-5.55,0.72-6.49-1.97l-10.1-29.12c-0.99-2.87-3.69-4.79-6.73-4.79
	h-36.62c-2.62,0-4.46,2.58-3.6,5.06l19.7,56.81c1.17,3.37,0.03,7.11-2.81,9.27l-92.05,69.56c-2.69,2.03-1.25,6.31,2.12,6.31h49.7
	c4.46,0,8.81-1.46,12.37-4.15l180.67-136.54c2.69-2.03,1.25-6.31-2.12-6.31h-49.69C1291.42,228.2,1287.07,229.66,1283.51,232.35z"/>
<path class="st1" d="M764.99,370.28l26.42-42.68c2.27-3.67,6.28-5.9,10.59-5.9h51.43c3.43,0,5.53,3.77,3.73,6.69l-24.73,39.95
	c-1.85,2.99,0.3,6.86,3.82,6.86h33.2c3.6,0,6.94-1.86,8.83-4.92l83.7-135.22c1.85-2.99-0.3-6.86-3.82-6.86H811.69
	c-3.6,0-6.94,1.86-8.83,4.92l-83.71,135.22c-1.85,2.99,0.3,6.86,3.82,6.86h33.2C759.76,375.2,763.1,373.34,764.99,370.28z
	 M890.52,274.49l-1.82,2.94c-1.64,2.65-4.54,4.27-7.66,4.27h-53.82c-3.23,0-5.2-3.55-3.51-6.29l1.82-2.94
	c1.64-2.65,4.54-4.27,7.66-4.27h53.82C890.25,268.2,892.22,271.75,890.52,274.49z"/>
<path class="st1" d="M411.58,370.28L438,327.6c2.27-3.67,6.28-5.9,10.59-5.9h51.43c3.43,0,5.53,3.77,3.73,6.69l-24.73,39.95
	c-1.85,2.99,0.3,6.86,3.82,6.86h33.2c3.6,0,6.94-1.86,8.83-4.92l83.7-135.22c1.85-2.99-0.3-6.86-3.82-6.86H458.28
	c-3.6,0-6.94,1.86-8.83,4.92l-83.71,135.22c-1.85,2.99,0.3,6.86,3.82,6.86h33.2C406.35,375.2,409.69,373.34,411.58,370.28z
	 M537.11,274.49l-1.82,2.94c-1.64,2.65-4.54,4.27-7.66,4.27h-53.82c-3.23,0-5.2-3.55-3.51-6.29l1.82-2.94
	c1.64-2.65,4.54-4.27,7.66-4.27h53.82C536.84,268.2,538.81,271.75,537.11,274.49z"/>
<g>
	<g>
		<path class="st0" d="M530.4,441.6c3.12,0,5.03,3.43,3.39,6.08l-17.75,28.68c-2.02,3.26-5.58,5.24-9.41,5.24h-79.63
			c-3.83,0-7.39,1.98-9.41,5.24l-34.46,55.67c-1.64,2.65,0.27,6.08,3.39,6.08c0,0,0,0,0,0l77.67-0.04c0,0,0,0,0,0
			c3.12,0,5.03,3.43,3.39,6.08l-17.75,28.68c-2.02,3.26-5.57,5.24-9.4,5.24L314.7,588.6c0,0,0,0,0,0c-3.12,0-5.03-3.43-3.39-6.08
			l83.99-135.68c2.02-3.26,5.58-5.24,9.41-5.24H530.4 M530.4,421.6H404.71c-10.84,0-20.71,5.5-26.41,14.71l-83.99,135.68
			c-4.58,7.39-4.79,16.7-0.56,24.3c4.23,7.59,12.26,12.31,20.95,12.31l125.72-0.05c10.83,0,20.7-5.5,26.4-14.71l17.75-28.68
			c4.58-7.39,4.79-16.7,0.56-24.3c-4.23-7.59-12.26-12.31-20.95-12.31l-48.91,0.03l16.7-26.98h74.65c10.84,0,20.71-5.5,26.41-14.71
			l17.75-28.68c4.58-7.39,4.79-16.7,0.56-24.3C547.12,426.32,539.09,421.6,530.4,421.6L530.4,421.6z"/>
	</g>
	<g>
		<path class="st0" d="M894.06,441.6c4.02,0,6.48,4.42,4.37,7.84l-84,135.71c-1.51,2.45-4.18,3.93-7.06,3.93c-0.01,0-0.02,0-0.03,0
			l-126.04-0.45c-4.02-0.01-6.46-4.42-4.35-7.84l83.73-135.26c1.52-2.44,4.18-3.93,7.06-3.93H894.06 M753.16,548.59
			C753.16,548.59,753.16,548.59,753.16,548.59l32.27-0.04c2.87,0,5.54-1.48,7.05-3.92l34.16-55.19c2.12-3.42-0.34-7.84-4.37-7.84
			h-32.24c-2.88,0-5.54,1.49-7.06,3.93l-34.17,55.22C746.67,544.17,749.13,548.59,753.16,548.59 M894.06,421.6H767.74
			c-9.84,0-18.83,4.99-24.04,13.36c-0.01,0.02-0.02,0.03-0.03,0.05l-83.73,135.26c-4.79,7.73-5.02,17.47-0.61,25.42
			c4.41,7.95,12.8,12.91,21.89,12.94l126.04,0.45c0,0,0.01,0,0.01,0c0.03,0,0.06,0,0.09,0c9.88,0,18.88-5.02,24.08-13.42
			l83.99-135.7c4.79-7.75,5.02-17.5,0.59-25.46C911.59,426.54,903.17,421.6,894.06,421.6L894.06,421.6z"/>
	</g>
	<g>
		<path class="st0" d="M722.37,442.1c4.14,0,6.68,4.55,4.5,8.07l-82.8,133.76c-1.99,3.21-5.5,5.17-9.28,5.17h-31.48
			c-4.14,0-6.68-4.55-4.5-8.07l23.13-37.36c2.18-3.52-0.35-8.07-4.5-8.07h-50.66c-3.78,0-7.29,1.95-9.27,5.17l-26.72,43.17
			c-1.99,3.21-5.5,5.17-9.27,5.17h-31.48c-4.14,0-6.68-4.55-4.5-8.07l82.81-133.76c1.99-3.21,5.5-5.17,9.27-5.17h31.47
			c4.14,0,6.68,4.55,4.5,8.07l-23.12,37.36c-2.18,3.52,0.35,8.07,4.5,8.07h50.67c3.78,0,7.29-1.95,9.27-5.17l26.72-43.17
			c1.99-3.21,5.5-5.17,9.27-5.17H722.37 M722.37,422.1H690.9c-10.78,0-20.61,5.47-26.28,14.64l-24.05,38.86h-19.2l9.22-14.9
			c4.82-7.79,5.05-17.61,0.59-25.62c-4.46-8.01-12.93-12.98-22.09-12.98h-31.47c-10.78,0-20.61,5.47-26.28,14.64L468.54,570.5
			c-4.82,7.79-5.05,17.61-0.59,25.62c4.46,8.01,12.93,12.98,22.09,12.98h31.48c10.78,0,20.61-5.47,26.28-14.64l24.05-38.86h19.19
			l-9.22,14.9c-4.82,7.79-5.05,17.61-0.59,25.62c4.46,8.01,12.93,12.98,22.09,12.98h31.48c10.78,0,20.61-5.47,26.28-14.64
			l82.8-133.76c4.82-7.79,5.05-17.61,0.59-25.62C740.01,427.07,731.54,422.1,722.37,422.1L722.37,422.1z"/>
	</g>
</g>
<path class="st2" d="M398.17,258.44c0,1.31-0.36,2.66-1.13,3.91c-2.06,3.32-5.7,5.35-9.61,5.35H270.67
	c-5.54,0-10.68,2.86-13.59,7.57L238.68,305l-13.93,22.5c-1.95,3.14,0.31,7.2,4.01,7.2h74.03c1.5,0,2.89-0.78,3.68-2.05l2.69-4.35
	c1.78-2.88-0.29-6.6-3.68-6.6h-42.52c-4.25,0-6.85-4.67-4.61-8.28l5.21-8.42l10.99-17.76c2.14-3.44,5.9-5.54,9.95-5.54h90.83
	c4.24,0,6.84,4.66,4.6,8.27l-9.3,15.03l-38.66,62.45c-2.79,4.51-7.71,7.25-13.01,7.25H156.95c-3.7,0-5.95-4.06-4.01-7.2l38.69-62.5
	L217,264.02c5.02-8.11,13.88-13.04,23.42-13.04H390.7C395.07,250.98,398.17,254.56,398.17,258.44z"/>
<path class="st2" d="M710.81,341.79l-17.48,28.23c-1.99,3.22-5.51,5.18-9.29,5.18H558.52c-3.38,0-5.45-3.72-3.67-6.59L594.22,305
	l28.42-45.9c3.13-5.05,8.64-8.12,14.58-8.12h24.92c5.49,0,8.84,6.02,5.95,10.69L641.27,305l-14.61,23.61
	c-1.78,2.87,0.29,6.59,3.67,6.59h76.8C710.52,335.2,712.59,338.91,710.81,341.79z"/>
<path class="st2" d="M1122.64,260.06l-55.99,42.32c-0.99,0.75-1.84,1.64-2.54,2.62c-2.25,3.14-2.91,7.23-1.6,11.01l1.48,4.26
	l16.47,47.47c1.26,3.65-1.45,7.46-5.31,7.46h-35.79c-2.01,0-3.81-1.28-4.47-3.18l-10.05-28.97c-1.23-3.55-5.56-4.87-8.56-2.6
	l-39.49,29.84c-4.22,3.19-9.35,4.91-14.63,4.91H916.8c-4.36,0-6.22-5.54-2.74-8.17L996.14,305l5.26-3.97
	c4.19-3.17,5.86-8.68,4.14-13.64l-9.71-27.97c-1.43-4.13,1.64-8.44,6.01-8.44h29.5c5.15,0,9.74,3.26,11.43,8.13l0.43,1.25
	c1.23,3.55,5.57,4.86,8.57,2.6l9.9-7.48c3.86-2.92,8.58-4.5,13.43-4.5h44.5C1124.44,250.98,1126.51,257.14,1122.64,260.06z"/>
<path class="st2" d="M1312.89,260.81L1254.41,305l-87.4,66.05c-3.56,2.69-7.9,4.15-12.36,4.15h-49.7c-3.37,0-4.81-4.28-2.12-6.31
	l84.54-63.89l7.51-5.67c2.85-2.15,3.98-5.9,2.82-9.27l-10.67-30.76c-1.42-4.07,1.61-8.32,5.92-8.32h26.83
	c6.82,0,12.9,4.32,15.13,10.76l0.13,0.36c0.93,2.69,4.21,3.69,6.48,1.97l11.65-8.8c3.69-2.79,8.19-4.29,12.81-4.29h43.61
	C1314.84,250.98,1317.07,257.64,1312.89,260.81z"/>
<path class="st3" d="M1044.64,464.88H935.59c-7.05,0-13.61,3.65-17.33,9.65l-27.47,44.37l-38.82,62.72
	c-2.02,3.27,0.32,7.48,4.16,7.48h30.1c5.07,0,9.78-2.62,12.45-6.94l16.11-26c2.67-4.32,7.38-6.94,12.45-6.94h73.71
	c5.07,0,9.78-2.62,12.45-6.94l14.48-23.38l24.66-39.83C1056.38,472.88,1051.92,464.88,1044.64,464.88z M948.47,501.75l7.89-12.75
	c2.67-4.32,7.38-6.94,12.45-6.94h25.86c3.83,0,6.18,4.21,4.16,7.48l-7.9,12.75c-2.67,4.31-7.38,6.93-12.45,6.93h-25.85
	C948.79,509.22,946.45,505.01,948.47,501.75z"/>
<path class="st3" d="M518.18,472.89l-2.15,3.47c-2.02,3.26-5.57,5.24-9.41,5.24h-79.63c-3.83,0-7.39,1.98-9.41,5.24l-19.85,32.06
	l-14.61,23.61c-1.64,2.66,0.27,6.09,3.39,6.09l77.67-0.05c3.12,0,5.03,3.43,3.39,6.08l-17.75,28.68c-2.02,3.26-5.57,5.24-9.4,5.24
	L314.7,588.6c-3.12,0-5.03-3.43-3.39-6.08l39.38-63.62l28.39-45.86c3.14-5.07,8.68-8.16,14.65-8.16h119.99
	C517.83,464.88,520.34,469.39,518.18,472.89z"/>
<path class="st3" d="M872.91,464.88h-112.3c-7.4,0-14.28,3.83-18.18,10.13l-27.17,43.89l-38.31,61.89
	c-2.11,3.42,0.34,7.83,4.35,7.84l126.04,0.45c2.89,0.01,5.57-1.47,7.09-3.93l41-66.25l25.04-40.45
	C884.14,472.53,879.88,464.88,872.91,464.88z M792.47,544.63c-1.51,2.44-4.18,3.92-7.05,3.92l-32.26,0.04
	c-4.03,0-6.49-4.42-4.37-7.84l13.52-21.85l20.65-33.37c1.52-2.44,4.18-3.93,7.06-3.93h32.24c4.02,0,6.49,4.42,4.37,7.84L808.4,518.9
	L792.47,544.63z"/>
<path class="st3" d="M711.82,474.48l-27.5,44.42l-40.25,65.03c-1.99,3.21-5.49,5.17-9.27,5.17h-31.48c-4.15,0-6.68-4.55-4.5-8.07
	l23.13-37.36c2.18-3.52-0.36-8.07-4.5-8.07h-50.66c-3.78,0-7.29,1.95-9.28,5.17l-26.72,43.16c-1.99,3.21-5.49,5.17-9.27,5.17h-31.48
	c-4.15,0-6.68-4.55-4.5-8.07l38.47-62.13l26.35-42.56c4.41-7.13,12.19-11.46,20.56-11.46h23.2c4.52,0,7.29,4.96,4.91,8.81
	l-8.57,13.84c-2.18,3.52,0.36,8.07,4.5,8.07h50.67c3.78,0,7.29-1.96,9.28-5.17l10.63-17.16c3.23-5.22,8.92-8.39,15.05-8.39h25.88
	C711.4,464.88,714.41,470.29,711.82,474.48z"/>
<path class="st2" d="M582.52,250.98H451.18c-7.96,0-15.34,4.11-19.53,10.87L404.94,305l-39.21,63.34c-1.85,2.99,0.3,6.86,3.82,6.86
	h33.2c3.6,0,6.94-1.86,8.83-4.92L438,327.6c2.27-3.67,6.28-5.9,10.59-5.9h51.43c3.43,0,5.53,3.77,3.72,6.69l-24.73,39.95
	c-1.85,2.99,0.3,6.86,3.82,6.86h33.2c3.6,0,6.94-1.86,8.83-4.92L565.27,305l24.92-40.26C593.9,258.73,589.58,250.98,582.52,250.98z
	 M470.3,275.41l1.82-2.94c1.64-2.66,4.54-4.27,7.66-4.27h53.82c3.23,0,5.21,3.54,3.51,6.29l-1.82,2.94
	c-1.64,2.65-4.54,4.27-7.66,4.27h-53.82C470.58,281.7,468.6,278.15,470.3,275.41z"/>
<path class="st2" d="M935.93,250.98H804.59c-7.96,0-15.34,4.11-19.53,10.87L758.35,305l-39.21,63.34c-1.85,2.99,0.3,6.86,3.82,6.86
	h33.2c3.59,0,6.94-1.86,8.83-4.92l26.42-42.68c2.27-3.67,6.28-5.9,10.59-5.9h51.43c3.43,0,5.53,3.77,3.72,6.69l-24.73,39.95
	c-1.85,2.99,0.3,6.86,3.82,6.86h33.2c3.59,0,6.94-1.86,8.83-4.92L918.68,305l24.92-40.26C947.31,258.73,942.99,250.98,935.93,250.98
	z M823.71,275.41l1.82-2.94c1.64-2.66,4.54-4.27,7.66-4.27h53.82c3.23,0,5.21,3.54,3.51,6.29l-1.82,2.94
	c-1.64,2.65-4.54,4.27-7.66,4.27h-53.82C823.99,281.7,822.01,278.15,823.71,275.41z"/>
<path class="st4" d="M257.81,314.31L257.81,314.31c-2,3.23,0.32,7.39,4.12,7.39h43.62c3.36,0,5.42,3.69,3.65,6.55l-3.08,4.98
	c-0.57,0.92-1.57,1.47-2.64,1.47H229c-3.8,0-6.12-4.17-4.12-7.4l5.16-8.34c3.77-6.09-0.61-13.96-7.78-13.96h-13.49
	c-10.65,0-20.55,5.51-26.15,14.57l-29.67,47.94c-1.94,3.14,0.31,7.19,4.01,7.19h162.7c4.88,0,9.4-2.52,11.97-6.67l26.76-43.23
	c5.35-8.64-0.87-19.8-11.03-19.8h-72.84C267.7,305,261.39,308.52,257.81,314.31z"/>
<path class="st4" d="M392.58,324.98l-26.84,43.36c-1.85,2.99,0.3,6.86,3.82,6.86h33.2c3.6,0,6.94-1.86,8.83-4.92L438,327.6
	c2.27-3.67,6.28-5.9,10.59-5.9h51.43c3.43,0,5.53,3.77,3.73,6.69l-24.73,39.95c-1.85,2.99,0.3,6.86,3.82,6.86h33.2
	c3.6,0,6.94-1.86,8.83-4.92l24.77-40.01c6.83-11.03-1.11-25.27-14.08-25.27H428.44C413.83,305,400.27,312.56,392.58,324.98z"/>
<path class="st4" d="M707.14,335.2h-76.8c-3.38,0-5.45-3.71-3.67-6.59l3.44-5.56c4.87-7.88-0.79-18.04-10.05-18.04h-5.02
	c-12.94,0-24.95,6.69-31.76,17.69l-28.42,45.91c-1.78,2.88,0.29,6.59,3.67,6.59h125.51c3.79,0,7.3-1.96,9.29-5.18l17.47-28.23
	C712.59,338.91,710.52,335.2,707.14,335.2z"/>
<path class="st4" d="M742.7,330.29l-23.55,38.05c-1.85,2.99,0.3,6.86,3.82,6.86h33.2c3.6,0,6.94-1.86,8.83-4.92l26.42-42.68
	c2.27-3.67,6.28-5.9,10.59-5.9h51.43c3.43,0,5.53,3.77,3.73,6.69l-24.73,39.95c-1.85,2.99,0.3,6.86,3.82,6.86h33.2
	c3.6,0,6.94-1.86,8.83-4.92l23.55-38.05c7.36-11.89-1.19-27.23-15.17-27.23H788.1C769.61,305,752.43,314.57,742.7,330.29z"/>
<path class="st4" d="M1045.87,305h-24.89c-16.12,0-31.8,5.26-44.66,14.98l-62.26,47.05c-3.48,2.63-1.62,8.17,2.74,8.17h45.36
	c5.28,0,10.41-1.72,14.63-4.9l39.49-29.85c3-2.27,7.33-0.95,8.56,2.6l10.05,28.97c0.66,1.9,2.46,3.18,4.47,3.18h35.79
	c3.86,0,6.57-3.81,5.31-7.46l-16.47-47.46c0,0,0,0,0,0C1062.46,311.45,1054.82,305,1045.87,305z"/>
<path class="st4" d="M1102.83,368.89c-2.69,2.03-1.25,6.31,2.12,6.31h49.7c4.46,0,8.81-1.46,12.37-4.15l65.11-49.2
	c7.17-5.42,3.34-16.85-5.65-16.85h-23.07c-10.4,0-20.51,3.39-28.81,9.66L1102.83,368.89z"/>
<path class="st5" d="M467.57,554.63l-17.75,28.68c-2.02,3.26-5.57,5.24-9.4,5.24L314.7,588.6c-3.12,0-5.03-3.43-3.39-6.08
	l31.44-50.79c4.94-7.97,13.65-12.83,23.02-12.83h8.45c10.26,0,16.54,11.27,11.14,19.99l-2.24,3.62c-1.64,2.66,0.27,6.09,3.39,6.09
	l77.67-0.05C467.3,548.55,469.21,551.98,467.57,554.63z"/>
<path class="st5" d="M653.88,518.9c13.29,0,21.41,14.58,14.42,25.88l-24.23,39.15c-1.99,3.21-5.49,5.17-9.27,5.17h-31.48
	c-4.15,0-6.68-4.55-4.5-8.07l23.13-37.36c2.18-3.52-0.36-8.07-4.5-8.07h-50.66c-3.78,0-7.29,1.95-9.28,5.17l-26.72,43.16
	c-1.99,3.21-5.49,5.17-9.27,5.17h-31.48c-4.15,0-6.68-4.55-4.5-8.07l26.61-42.98c7.37-11.9,20.38-19.15,34.38-19.15H653.88z"/>
<path class="st5" d="M829.74,518.9c11.22,0,18.08,12.31,12.17,21.85l-27.48,44.4c-1.52,2.46-4.2,3.94-7.09,3.93l-126.04-0.45
	c-4.01-0.01-6.46-4.42-4.35-7.84l28.8-46.53c5.91-9.55,16.34-15.36,27.57-15.36h3.3c11.22,0,18.08,12.31,12.17,21.85v0
	c-2.12,3.42,0.34,7.84,4.37,7.84l32.26-0.04c2.87,0,5.54-1.48,7.05-3.92l6.42-10.38c5.91-9.55,16.34-15.35,27.56-15.35H829.74z"/>
<path class="st5" d="M1003.08,518.9c10.83,0,17.45,11.89,11.75,21.09l-1.42,2.29c-2.67,4.32-7.38,6.94-12.45,6.94h-73.71
	c-5.07,0-9.78,2.62-12.45,6.94l-16.11,26c-2.67,4.32-7.38,6.94-12.45,6.94h-30.1c-3.84,0-6.18-4.21-4.16-7.48l28.08-45.37
	c6.67-10.78,18.45-17.35,31.14-17.35H1003.08z"/>
<path class="st0" d="M796.27,534.01h1.63c0.31-1.72,0.8-3.4,1.47-5.01L796.27,534.01z"/>
<g>
	<path class="st0" d="M1066.73,441.76c3.84,0,6.18,4.21,4.16,7.48l-57.48,92.84c-2.67,4.31-7.38,6.94-12.45,6.94h-73.71
		c-5.07,0-9.78,2.62-12.45,6.94l-16.1,26.01c-2.67,4.31-7.38,6.94-12.45,6.94h-30.1c-3.84,0-6.18-4.21-4.16-7.47l82.11-132.63
		c2.67-4.31,7.37-6.93,12.44-6.94L1066.73,441.76C1066.72,441.76,1066.73,441.76,1066.73,441.76 M952.63,509.02h25.85
		c5.07,0,9.78-2.62,12.45-6.93l7.9-12.75c2.02-3.26-0.33-7.48-4.16-7.48h-25.86c-5.07,0-9.78,2.62-12.45,6.94l-7.89,12.75
		C946.45,504.8,948.8,509.02,952.63,509.02 M1066.73,421.76L1066.73,421.76l-120.22,0.09c-12.07,0.01-23.08,6.14-29.43,16.41
		l-82.11,132.63c-4.75,7.67-4.97,17.34-0.58,25.22c4.39,7.88,12.73,12.78,21.75,12.78h30.1c12.08,0,23.1-6.13,29.46-16.41
		l14.53-23.47h70.73c12.08,0,23.1-6.13,29.46-16.41l57.48-92.84c4.75-7.67,4.97-17.34,0.58-25.22
		C1084.09,426.66,1075.75,421.76,1066.73,421.76L1066.73,421.76z"/>
</g>
<g>
	<path class="st3" d="M1845.13,467.49l76.83-225.98c30.97,15.9,52.25,39.3,58.27,68.22C1992.8,370.16,1934.63,435.07,1845.13,467.49
		z"/>
	<path class="st2" d="M1819.96,241.51l-76.83,225.98c-14.92,5.41-30.72,9.91-47.2,13.34c-115.35,23.99-220.74-13.72-235.41-84.23
		c-14.66-70.5,66.96-147.11,182.3-171.1C1710.86,211.35,1775.43,218.67,1819.96,241.51z"/>
	<path class="st3" d="M2007.21,542.05c-70.15,14.59-136.62,6.36-181.24-18.2l75.38-221.72c16.54-6.34,34.21-11.55,52.75-15.41
		c115.35-23.99,220.74,13.72,235.41,84.22C2204.17,441.45,2122.55,518.06,2007.21,542.05z"/>
	<path class="st2" d="M1799.35,302.13l-75.38,221.72c-28.74-15.81-48.42-38.41-54.17-66.03
		C1657.5,398.65,1713,335.18,1799.35,302.13z"/>
	<path class="st5" d="M1845.13,467.49l56.22-165.36c16.54-6.34,34.21-11.55,52.75-15.41c5.32-1.11,10.61-2.08,15.88-2.93
		c4.86,8.04,8.33,16.71,10.25,25.94C1992.8,370.16,1934.63,435.07,1845.13,467.49z"/>
	<path class="st4" d="M1799.35,302.13l-56.22,165.36c-14.92,5.41-30.72,9.91-47.2,13.34c-5.32,1.11-10.61,2.08-15.88,2.93
		c-4.85-8.04-8.33-16.71-10.25-25.94C1657.5,398.64,1713,335.18,1799.35,302.13z"/>
	<path class="st0" d="M2055.52,316.79c0,40.87-17.72,79.27-49.99,108.62c-0.03,0.02-0.05,0.05-0.08,0.08
		c-1.07,0.96-2.14,1.92-3.24,2.86c-0.89,0.78-1.81,1.54-2.72,2.3c-0.21,0.17-0.41,0.35-0.62,0.52c-0.9,0.74-1.82,1.47-2.74,2.2
		c-0.21,0.16-0.42,0.33-0.63,0.5c-0.91,0.71-1.83,1.41-2.76,2.1c-0.23,0.18-0.46,0.35-0.7,0.53c-0.91,0.67-1.83,1.34-2.75,2
		c-0.27,0.19-0.53,0.38-0.8,0.56c-0.9,0.64-1.82,1.28-2.74,1.9l-0.9,0.6c-0.9,0.6-1.8,1.2-2.71,1.79c-0.35,0.22-0.71,0.44-1.06,0.67
		c-0.87,0.55-1.74,1.1-2.63,1.64c-0.61,0.38-1.24,0.74-1.86,1.11c-0.9,0.53-1.81,1.07-2.72,1.59c-1.03,0.59-2.07,1.17-3.12,1.74
		c-0.31,0.17-0.63,0.34-0.95,0.51c-1.07,0.58-2.15,1.14-3.23,1.7c-0.27,0.14-0.55,0.27-0.82,0.41c-1.16,0.59-2.34,1.17-3.52,1.74
		c-0.19,0.09-0.38,0.18-0.57,0.27c-1.32,0.63-2.64,1.24-3.98,1.84c-0.05,0.02-0.11,0.05-0.16,0.07
		c-17.66,7.89-36.74,13.17-56.6,15.6c-0.12,0.02-0.25,0.03-0.37,0.05c-1.43,0.17-2.87,0.33-4.31,0.47c-0.35,0.04-0.69,0.07-1.03,0.1
		c-1.23,0.12-2.46,0.22-3.69,0.32c-0.46,0.03-0.91,0.06-1.37,0.1c-1.14,0.08-2.28,0.14-3.43,0.21c-0.5,0.02-1,0.05-1.5,0.07
		c-1.16,0.06-2.32,0.1-3.48,0.13c-0.46,0.02-0.92,0.04-1.39,0.05c-1.61,0.03-3.22,0.05-4.83,0.05c-10.49,0-20.9-1.86-30.68-5.44
		l57.44-168.95c1.16,0.4,2.32,0.84,3.47,1.3c2.95,1.19,5.85,2.52,8.65,4.02c16.93,8.23,31.09,21.94,39.88,38.6
		c1.12,2.11,2.12,4.73,3.04,7.91c0.92,3.18,1.74,6.92,2.49,11.27c0.07,0.38,0.16,0.73,0.26,1.07c0.02,0.05,0.04,0.1,0.05,0.15
		c0.84,2.51,2.72,4.03,4.66,4.76c0,0,0,0.01,0.01,0.01c1.02-0.48,2.91-1.49,5.8-3.57c2.12-1.51,4.36-2.75,6.67-3.73
		c9.34-13.61,14.26-28.84,14.26-44.4c0-1.94-0.09-3.98-0.25-6.06c-2.02-24.68,9.43-49.29,29.89-64.16l11.15-8.11l6.49,12.17
		c5.43,10.17,9.59,20.85,12.37,31.74C2054.05,293.6,2055.52,305.18,2055.52,316.79z"/>
	<path class="st0" d="M1800.28,299.4l-57.44,168.95c-3-1.08-5.94-2.34-8.8-3.76c-0.82-0.41-1.62-0.82-2.42-1.25
		c-16.93-8.23-31.08-21.93-39.87-38.59c-2.23-4.22-4.03-10.49-5.53-19.18c-0.32-1.87-1.19-3.33-2.34-4.39
		c-0.04-0.04-0.08-0.08-0.12-0.11c-0.1-0.09-0.2-0.17-0.29-0.24c-0.1-0.08-0.2-0.16-0.29-0.23c-0.01,0-0.03-0.01-0.04-0.02
		c-1.01-0.72-2.04-1.08-2.68-1.25c-0.48-0.13-1.2-0.27-2.06-0.29c-0.13,0.08-0.3,0.18-0.49,0.3c-1.85,1.18-3.79,2.16-5.78,2.94
		c-11.52,14.74-17.61,31.66-17.61,48.99c0,1.95,0.08,3.99,0.24,6.07c2.02,24.68-9.43,49.28-29.89,64.16l-11.15,8.11l-6.49-12.17
		c-5.42-10.17-9.59-20.85-12.37-31.74c-2.88-11.23-4.34-22.82-4.34-34.43c0-40.31,17.24-78.21,48.68-107.4
		c0.1-0.1,0.2-0.19,0.3-0.28c0.97-0.9,1.95-1.78,2.94-2.66c0.14-0.12,0.27-0.23,0.4-0.35c0.35-0.31,0.69-0.62,1.04-0.92
		c31.62-27.29,72.86-43.14,116.99-45.16h0.08c1.41-0.07,2.83-0.12,4.25-0.15c0.2-0.01,0.4-0.02,0.6-0.02
		c1.57-0.04,3.14-0.06,4.72-0.06c0.91,0,1.82,0.02,2.73,0.05C1782.48,294.6,1791.62,296.33,1800.28,299.4z"/>
	<path class="st6" d="M1998.37,398.66c-20.96,22.82-50.47,39.68-84.38,47.04c-2.26,0.49-4.54,0.93-6.84,1.34
		c-1.2,0.21-2.4,0.41-3.61,0.6c-2.25,0.35-4.53,0.66-6.82,0.93c-1.1,0.12-2.21,0.24-3.32,0.35c-1.3,0.13-2.61,0.25-3.92,0.34
		c-0.61,0.05-1.22,0.09-1.84,0.13c-0.76,0.05-1.53,0.1-2.3,0.14c-0.53,0.03-1.06,0.05-1.6,0.08c-2.73,0.12-5.47,0.18-8.22,0.18
		c-7.86,0-15.66-1.43-22.96-4.16l42-123.52c2.99,1.07,5.89,2.36,8.68,3.86l0.57,0.29c12.41,6.01,22.8,16.04,29.24,28.25
		c0.26,0.49,1.61,3.35,3.11,12.07c0.13,0.77,0.29,1.53,0.48,2.28c0.08,0.35,0.18,0.7,0.28,1.05c0.23,0.82,0.49,1.62,0.78,2.4
		c0.08,0.23,0.17,0.46,0.26,0.68c0.11,0.28,0.22,0.55,0.34,0.82c0.14,0.34,0.29,0.67,0.45,1c0.13,0.3,0.28,0.59,0.43,0.88
		c0.21,0.43,0.44,0.85,0.68,1.27c0.19,0.35,0.4,0.69,0.61,1.03c1.63,2.64,3.63,5.01,5.94,7.04c0.17,0.16,0.35,0.31,0.53,0.45
		c0.72,0.62,1.47,1.19,2.25,1.73c0.24,0.18,0.49,0.34,0.74,0.5c0.31,0.21,0.63,0.41,0.95,0.6c0.32,0.21,0.65,0.4,0.98,0.57
		c0.33,0.2,0.66,0.37,1,0.54c0.33,0.18,0.68,0.35,1.02,0.51c0.42,0.2,0.84,0.38,1.27,0.56c0.28,0.12,0.56,0.23,0.85,0.34
		c0.74,0.29,1.49,0.55,2.27,0.78c0.28,0.09,0.55,0.17,0.84,0.24c0.07,0.03,0.15,0.05,0.22,0.07c0.05,0.01,0.09,0.02,0.14,0.03
		c0.4,0.12,0.81,0.21,1.22,0.3c0.41,0.09,0.83,0.18,1.24,0.25c0.18,0.03,0.35,0.07,0.53,0.09c0.97,0.16,1.95,0.28,2.92,0.34
		c-0.84-0.06-1.68-0.16-2.52-0.29c6.03,0.76,12.78-1.81,21.71-8.21c1.98-1.42,4.32-2.03,6.58-1.84c1.96,0.16,3.85,0.92,5.42,2.27
		l0.5,0.43c2.03,1.76,3.23,4.2,3.38,6.88C2000.58,394.56,1999.85,396.84,1998.37,398.66z"/>
	<path class="st6" d="M1770.52,318.27c-0.83,0-1.65,0.01-2.48,0.02c-0.58,0-1.16,0.02-1.74,0.03c-2.17,0.05-4.34,0.14-6.5,0.26
		c-1.33,0.08-2.65,0.17-3.97,0.28h-0.03c-0.69,0.06-1.37,0.12-2.06,0.18c-2.08,0.19-4.15,0.42-6.21,0.68
		c-15.81,2.02-31.09,6.09-45.33,12.01c-2.48,1.03-4.92,2.12-7.33,3.26c-0.1,0.05-0.2,0.1-0.3,0.14c-1.65,0.79-3.27,1.59-4.88,2.42
		c-3.26,1.69-6.46,3.48-9.57,5.38c-4.02,2.45-7.91,5.06-11.64,7.81c-0.72,0.53-1.43,1.07-2.14,1.61c-0.62,0.47-1.23,0.95-1.84,1.43
		c-4.26,3.38-8.3,6.95-12.1,10.71c-1.63,1.84-2.51,4.16-2.48,6.63c0.02,2.66,1.1,5.14,3.04,6.96c2.02,1.9,4.7,2.78,7.37,2.59
		c1.63-0.13,3.25-0.65,4.71-1.58c3.11-1.97,5.84-3.16,8.47-3.67c0.43-0.06,0.85-0.14,1.28-0.19c1.01-0.12,2.04-0.19,3.07-0.19
		c0.13-0.01,0.25-0.01,0.38-0.01c0.22,0,0.43,0,0.64,0.02c0.19-0.01,0.39,0,0.58,0.01c0.09-0.01,0.18,0,0.28,0.01
		c0.01-0.01,0.02,0,0.03,0c0.31,0.01,0.62,0.03,0.93,0.06c0.07,0,0.13,0,0.2,0.01c0.15,0.01,0.3,0.02,0.45,0.04
		c0.25,0.02,0.51,0.05,0.76,0.09c0.12,0.01,0.25,0.02,0.37,0.04c0.14,0.02,0.28,0.04,0.42,0.06c0.33,0.05,0.67,0.1,1,0.16
		c0.06,0.01,0.13,0.02,0.19,0.03c0.41,0.07,0.82,0.16,1.23,0.25c0.02,0,0.05,0.01,0.08,0.02c0.44,0.1,0.87,0.2,1.3,0.32
		c0.01,0.01,0.02,0.01,0.02,0.01c0.45,0.12,0.9,0.25,1.34,0.4c10.43,3.28,18.24,11.4,21.1,21.79c0.06,0.2,0.12,0.4,0.16,0.6
		c0.08,0.27,0.14,0.54,0.2,0.81c0.13,0.57,0.25,1.15,0.35,1.73c1.5,8.72,2.85,11.58,3.11,12.07c6.39,12.11,16.67,22.09,28.96,28.12
		c0.38,0.16,0.75,0.35,1.11,0.56c2.43,1.29,4.93,2.42,7.51,3.39l42-123.52C1785.52,319.58,1778.04,318.27,1770.52,318.27z
		 M1667.07,377.09c0.89-0.35,1.79-0.65,2.71-0.89C1668.86,376.46,1667.96,376.75,1667.07,377.09z"/>
	<g>
		<path class="st7" d="M1845.13,467.49"/>
	</g>
	<g>
		<path class="st7" d="M1901.35,302.13"/>
	</g>
	<g>
		<path class="st7" d="M1845.13,467.49"/>
	</g>
	<g>
		<path class="st7" d="M1921.96,241.51"/>
	</g>
	<g>
		<g>
			<line class="st8" x1="1948.83" y1="162.49" x2="1944" y2="176.69"/>
			<line class="st9" x1="1928.34" y1="222.76" x2="1810.87" y2="568.26"/>
			<line class="st8" x1="1803.04" y1="591.29" x2="1798.21" y2="605.49"/>
		</g>
	</g>
	<g>
		<g>
			<line class="st8" x1="1846.83" y1="162.49" x2="1842" y2="176.69"/>
			<line class="st9" x1="1826.34" y1="222.76" x2="1708.87" y2="568.26"/>
			<line class="st8" x1="1701.04" y1="591.29" x2="1696.21" y2="605.49"/>
		</g>
	</g>
	<g>
		<circle class="st0" cx="1577.21" cy="268.68" r="14.89"/>
		<g>
			<path class="st6" d="M1577.52,291.32c-1.78,0-3.27-1.39-3.39-3.16l-0.27-10.01c-0.23-2.91-2.58-5.26-5.49-5.49l-9.96-0.27
				l-0.05,0c-1.77-0.13-3.16-1.62-3.16-3.39c0-1.78,1.39-3.27,3.16-3.39l10.01-0.27c2.91-0.23,5.26-2.58,5.49-5.49l0.27-9.96l0-0.05
				c0.13-1.77,1.62-3.16,3.39-3.16s3.27,1.39,3.39,3.16l0.27,10.01c0.23,2.91,2.58,5.26,5.49,5.49l9.96,0.27l0.05,0
				c1.77,0.13,3.16,1.62,3.16,3.39c0,1.78-1.39,3.27-3.16,3.39l-10.01,0.27c-2.91,0.23-5.26,2.58-5.49,5.49l-0.27,9.96l0,0.05
				C1580.79,289.93,1579.3,291.32,1577.52,291.32z"/>
			<path class="st0" d="M1577.52,248.83c0.65,0,1.18,0.5,1.23,1.14l0.27,9.97c0.29,4.05,3.51,7.26,7.55,7.55l9.97,0.27
				c0.64,0.05,1.14,0.58,1.14,1.23c0,0.65-0.5,1.18-1.14,1.23l-9.97,0.27c-4.05,0.29-7.26,3.51-7.55,7.55l-0.27,9.97
				c-0.05,0.64-0.58,1.14-1.23,1.14c-0.65,0-1.18-0.5-1.23-1.14l-0.27-9.97c-0.29-4.05-3.51-7.26-7.55-7.55l-9.97-0.27
				c-0.64-0.05-1.14-0.58-1.14-1.23c0-0.65,0.5-1.18,1.14-1.23l9.97-0.27c4.04-0.29,7.26-3.51,7.55-7.55l0.27-9.97
				C1576.34,249.33,1576.87,248.83,1577.52,248.83 M1577.52,244.49c-2.91,0-5.35,2.27-5.56,5.18l-0.01,0.1l0,0.1l-0.27,9.85
				c-0.17,1.82-1.63,3.28-3.45,3.45l-9.85,0.27l-0.1,0l-0.1,0.01c-2.9,0.21-5.18,2.65-5.18,5.56c0,2.91,2.27,5.35,5.18,5.56
				l0.1,0.01l0.1,0l9.85,0.27c1.82,0.17,3.28,1.63,3.45,3.45l0.27,9.85l0,0.1l0.01,0.1c0.21,2.9,2.65,5.18,5.56,5.18
				s5.35-2.27,5.56-5.18l0.01-0.1l0-0.1l0.27-9.85c0.17-1.82,1.63-3.28,3.45-3.45l9.85-0.27l0.1,0l0.1-0.01
				c2.9-0.21,5.18-2.65,5.18-5.56c0-2.91-2.27-5.35-5.18-5.56l-0.1-0.01l-0.1,0l-9.85-0.27c-1.82-0.17-3.28-1.63-3.45-3.45
				l-0.27-9.85l0-0.1l-0.01-0.1C1582.87,246.76,1580.43,244.49,1577.52,244.49L1577.52,244.49z"/>
		</g>
		<path class="st0" d="M1597.68,268.99c0,0.65-0.5,1.18-1.14,1.23l-9.97,0.27c-4.04,0.29-7.26,3.51-7.55,7.55l-0.27,9.97
			c-0.04,0.65-0.58,1.14-1.23,1.14s-1.18-0.5-1.23-1.14l-0.27-9.97c-0.29-4.04-3.51-7.26-7.55-7.55l-9.97-0.27
			c-0.65-0.04-1.14-0.58-1.14-1.23c0-0.65,0.5-1.18,1.14-1.23l9.97-0.27c4.04-0.29,7.26-3.51,7.55-7.55l0.27-9.97
			c0.04-0.65,0.58-1.14,1.23-1.14s1.18,0.5,1.23,1.14l0.27,9.97c0.29,4.04,3.51,7.26,7.55,7.55l9.97,0.27
			C1597.18,267.81,1597.68,268.35,1597.68,268.99z"/>
		<path class="st6" d="M1587.75,268.71v0.56c0,0.66-0.53,1.2-1.18,1.22l0,0c-4.05,0.11-7.45,3.51-7.55,7.55l0,0
			c-0.02,0.66-0.56,1.18-1.22,1.18h-0.56c-0.66,0-1.2-0.53-1.22-1.18v0c-0.11-4.05-3.51-7.45-7.55-7.55l0,0
			c-0.66-0.02-1.18-0.56-1.18-1.22v-0.56c0-0.66,0.53-1.2,1.18-1.22l0,0c4.05-0.11,7.45-3.51,7.55-7.55l0,0
			c0.02-0.66,0.56-1.18,1.22-1.18h0.56c0.66,0,1.2,0.53,1.22,1.18v0c0.11,4.05,3.51,7.45,7.55,7.55h0
			C1587.23,267.51,1587.75,268.05,1587.75,268.71z"/>
	</g>
	<g>
		<circle class="st0" cx="2025.21" cy="507.68" r="14.89"/>
		<g>
			<path class="st6" d="M2025.52,540.32c-1.78,0-3.27-1.39-3.39-3.16l-0.27-20.01c-0.23-2.91-2.58-5.26-5.49-5.49l-19.96-0.27
				l-0.05,0c-1.77-0.13-3.16-1.62-3.16-3.39c0-1.78,1.39-3.27,3.16-3.39l20.01-0.27c2.91-0.23,5.26-2.58,5.49-5.49l0.27-19.96
				l0-0.05c0.13-1.77,1.62-3.16,3.39-3.16s3.27,1.39,3.39,3.16l0.27,20.01c0.23,2.91,2.58,5.26,5.49,5.49l19.96,0.27l0.05,0
				c1.77,0.13,3.16,1.62,3.16,3.39c0,1.78-1.39,3.27-3.16,3.39l-20.01,0.27c-2.91,0.23-5.26,2.58-5.49,5.49l-0.27,19.96l0,0.05
				C2028.79,538.93,2027.3,540.32,2025.52,540.32z"/>
			<path class="st0" d="M2025.52,477.83c0.65,0,1.18,0.5,1.23,1.14l0.27,19.97c0.29,4.05,3.51,7.26,7.55,7.55l19.97,0.27
				c0.64,0.05,1.14,0.58,1.14,1.23c0,0.65-0.5,1.18-1.14,1.23l-19.97,0.27c-4.05,0.29-7.26,3.51-7.55,7.55l-0.27,19.97
				c-0.05,0.64-0.58,1.14-1.23,1.14c-0.65,0-1.18-0.5-1.23-1.14l-0.27-19.97c-0.29-4.05-3.51-7.26-7.55-7.55l-19.97-0.27
				c-0.64-0.05-1.14-0.58-1.14-1.23c0-0.65,0.5-1.18,1.14-1.23l19.97-0.27c4.04-0.29,7.26-3.51,7.55-7.55l0.27-19.97
				C2024.34,478.33,2024.87,477.83,2025.52,477.83 M2025.52,473.49c-2.91,0-5.35,2.27-5.56,5.18l-0.01,0.1l0,0.1l-0.27,19.85
				c-0.17,1.82-1.63,3.28-3.45,3.45l-19.85,0.27l-0.1,0l-0.1,0.01c-2.9,0.21-5.18,2.65-5.18,5.56c0,2.91,2.27,5.35,5.18,5.56
				l0.1,0.01l0.1,0l19.85,0.27c1.82,0.17,3.28,1.63,3.45,3.45l0.27,19.85l0,0.1l0.01,0.1c0.21,2.9,2.65,5.18,5.56,5.18
				s5.35-2.27,5.56-5.18l0.01-0.1l0-0.1l0.27-19.85c0.17-1.82,1.63-3.28,3.45-3.45l19.85-0.27l0.1,0l0.1-0.01
				c2.9-0.21,5.18-2.65,5.18-5.56c0-2.91-2.27-5.35-5.18-5.56l-0.1-0.01l-0.1,0l-19.85-0.27c-1.82-0.17-3.28-1.63-3.45-3.45
				l-0.27-19.85l0-0.1l-0.01-0.1C2030.87,475.76,2028.43,473.49,2025.52,473.49L2025.52,473.49z"/>
		</g>
		<path class="st0" d="M2055.68,507.99c0,0.65-0.5,1.18-1.14,1.23l-19.97,0.27c-4.04,0.29-7.26,3.51-7.55,7.55l-0.27,19.97
			c-0.04,0.65-0.58,1.14-1.23,1.14s-1.18-0.5-1.23-1.14l-0.27-19.97c-0.29-4.04-3.51-7.26-7.55-7.55l-19.97-0.27
			c-0.65-0.04-1.14-0.58-1.14-1.23c0-0.65,0.5-1.18,1.14-1.23l19.97-0.27c4.04-0.29,7.26-3.51,7.55-7.55l0.27-19.97
			c0.04-0.65,0.58-1.14,1.23-1.14s1.18,0.5,1.23,1.14l0.27,19.97c0.29,4.04,3.51,7.26,7.55,7.55l19.97,0.27
			C2055.18,506.81,2055.68,507.35,2055.68,507.99z"/>
		<path class="st6" d="M2035.75,507.71v0.56c0,0.66-0.53,1.2-1.18,1.22l0,0c-4.05,0.11-7.45,3.51-7.55,7.55l0,0
			c-0.02,0.66-0.56,1.18-1.22,1.18h-0.56c-0.66,0-1.2-0.53-1.22-1.18l0,0c-0.11-4.05-3.51-7.45-7.55-7.55l0,0
			c-0.66-0.02-1.18-0.56-1.18-1.22v-0.56c0-0.66,0.53-1.2,1.18-1.22l0,0c4.05-0.11,7.45-3.51,7.55-7.55l0,0
			c0.02-0.66,0.56-1.18,1.22-1.18h0.56c0.66,0,1.2,0.53,1.22,1.18v0c0.11,4.05,3.51,7.45,7.55,7.55h0
			C2035.23,506.51,2035.75,507.05,2035.75,507.71z"/>
	</g>
	<g>
		<circle class="st0" cx="1617.4" cy="214.87" r="5.82"/>
		<g>
			<path class="st6" d="M1617.52,227.64c-0.7,0-1.28-0.54-1.33-1.24l-0.11-7.83c-0.09-1.14-1.01-2.06-2.15-2.15l-7.81-0.11l-0.02,0
				c-0.69-0.05-1.24-0.63-1.24-1.33c0-0.7,0.54-1.28,1.24-1.33l7.83-0.11c1.14-0.09,2.06-1.01,2.15-2.15l0.11-7.81l0-0.02
				c0.05-0.69,0.63-1.24,1.33-1.24s1.28,0.54,1.33,1.24l0.11,7.83c0.09,1.14,1.01,2.06,2.15,2.15l7.81,0.11l0.02,0
				c0.69,0.05,1.24,0.63,1.24,1.33c0,0.7-0.54,1.28-1.24,1.33l-7.83,0.11c-1.14,0.09-2.06,1.01-2.15,2.15l-0.11,7.81l0,0.02
				C1618.8,227.1,1618.22,227.64,1617.52,227.64z"/>
			<path class="st0" d="M1617.52,203.19c0.25,0,0.46,0.2,0.48,0.45l0.11,7.81c0.11,1.58,1.37,2.84,2.96,2.96l7.81,0.11
				c0.25,0.02,0.45,0.23,0.45,0.48c0,0.25-0.2,0.46-0.45,0.48l-7.81,0.11c-1.58,0.11-2.84,1.37-2.96,2.96l-0.11,7.81
				c-0.02,0.25-0.23,0.45-0.48,0.45c-0.25,0-0.46-0.2-0.48-0.45l-0.11-7.81c-0.11-1.58-1.37-2.84-2.96-2.96l-7.81-0.11
				c-0.25-0.02-0.45-0.23-0.45-0.48c0-0.25,0.2-0.46,0.45-0.48l7.81-0.11c1.58-0.11,2.84-1.37,2.96-2.96l0.11-7.81
				C1617.06,203.39,1617.27,203.19,1617.52,203.19 M1617.52,201.49c-1.14,0-2.09,0.89-2.18,2.03l0,0.04l0,0.04l-0.1,7.77
				c-0.07,0.71-0.64,1.28-1.35,1.35l-7.77,0.1l-0.04,0l-0.04,0c-1.14,0.08-2.03,1.04-2.03,2.18c0,1.14,0.89,2.09,2.03,2.18l0.04,0
				l0.04,0l7.77,0.1c0.71,0.07,1.28,0.64,1.35,1.35l0.1,7.77l0,0.04l0,0.04c0.08,1.14,1.04,2.03,2.18,2.03s2.09-0.89,2.18-2.03
				l0-0.04l0-0.04l0.1-7.77c0.07-0.71,0.64-1.28,1.35-1.35l7.77-0.1l0.04,0l0.04,0c1.14-0.08,2.03-1.04,2.03-2.18
				c0-1.14-0.89-2.09-2.03-2.18l-0.04,0l-0.04,0l-7.77-0.1c-0.71-0.07-1.28-0.64-1.35-1.35l-0.1-7.77l0-0.04l0-0.04
				C1619.61,202.38,1618.66,201.49,1617.52,201.49L1617.52,201.49z"/>
		</g>
		<path class="st0" d="M1629.32,214.99c0,0.25-0.19,0.46-0.45,0.48l-7.81,0.1c-1.58,0.11-2.84,1.37-2.96,2.96l-0.1,7.81
			c-0.02,0.25-0.23,0.45-0.48,0.45s-0.46-0.19-0.48-0.45l-0.1-7.81c-0.11-1.58-1.37-2.84-2.96-2.96l-7.81-0.1
			c-0.25-0.02-0.45-0.23-0.45-0.48c0-0.25,0.19-0.46,0.45-0.48l7.81-0.1c1.58-0.11,2.84-1.37,2.96-2.96l0.1-7.81
			c0.02-0.25,0.23-0.45,0.48-0.45s0.46,0.19,0.48,0.45l0.1,7.81c0.11,1.58,1.37,2.84,2.96,2.96l7.81,0.1
			C1629.13,214.53,1629.32,214.74,1629.32,214.99z"/>
		<path class="st6" d="M1621.52,214.88v0.22c0,0.26-0.21,0.47-0.46,0.48h0c-1.58,0.04-2.91,1.37-2.96,2.96l0,0
			c-0.01,0.26-0.22,0.46-0.48,0.46h-0.22c-0.26,0-0.47-0.21-0.48-0.46l0,0c-0.04-1.58-1.37-2.91-2.96-2.96l0,0
			c-0.26-0.01-0.46-0.22-0.46-0.48v-0.22c0-0.26,0.21-0.47,0.46-0.48h0c1.58-0.04,2.91-1.37,2.96-2.96l0,0
			c0.01-0.26,0.22-0.46,0.48-0.46h0.22c0.26,0,0.47,0.21,0.48,0.46l0,0c0.04,1.58,1.37,2.91,2.96,2.96l0,0
			C1621.32,214.41,1621.52,214.62,1621.52,214.88z"/>
	</g>
	<g>
		<circle class="st0" cx="1617.34" cy="214.81" r="8.81"/>
		<g>
			<path class="st6" d="M1617.52,228.21c-1.05,0-1.93-0.82-2.01-1.87l-0.16-5.92c-0.14-1.72-1.53-3.12-3.25-3.25l-5.9-0.16l-0.03,0
				c-1.05-0.07-1.87-0.96-1.87-2.01c0-1.05,0.82-1.93,1.87-2.01l5.92-0.16c1.72-0.14,3.11-1.53,3.25-3.25l0.16-5.9l0-0.03
				c0.07-1.05,0.96-1.87,2.01-1.87s1.93,0.82,2.01,1.87l0.16,5.92c0.14,1.72,1.53,3.12,3.25,3.25l5.9,0.16l0.03,0
				c1.05,0.07,1.87,0.96,1.87,2.01c0,1.05-0.82,1.93-1.87,2.01l-5.92,0.16c-1.72,0.14-3.12,1.53-3.25,3.25l-0.16,5.9l0,0.03
				C1619.45,227.38,1618.57,228.21,1617.52,228.21z"/>
			<path class="st0" d="M1617.52,203.06c0.38,0,0.7,0.3,0.73,0.68l0.16,5.9c0.17,2.39,2.08,4.3,4.47,4.47l5.9,0.16
				c0.38,0.03,0.68,0.34,0.68,0.73s-0.3,0.7-0.68,0.73l-5.9,0.16c-2.39,0.17-4.3,2.08-4.47,4.47l-0.16,5.9
				c-0.03,0.38-0.34,0.68-0.73,0.68c-0.38,0-0.7-0.3-0.73-0.68l-0.16-5.9c-0.17-2.39-2.08-4.3-4.47-4.47l-5.9-0.16
				c-0.38-0.03-0.68-0.34-0.68-0.73s0.3-0.7,0.68-0.73l5.9-0.16c2.39-0.17,4.3-2.08,4.47-4.47l0.16-5.9
				C1616.82,203.36,1617.14,203.06,1617.52,203.06 M1617.52,200.49c-1.72,0-3.17,1.35-3.29,3.06l0,0.06l0,0.06l-0.16,5.83
				c-0.1,1.08-0.96,1.94-2.04,2.04l-5.83,0.16l-0.06,0l-0.06,0c-1.72,0.12-3.06,1.57-3.06,3.29c0,1.72,1.35,3.17,3.06,3.29l0.06,0
				l0.06,0l5.83,0.16c1.08,0.1,1.94,0.96,2.04,2.04l0.16,5.83l0,0.06l0,0.06c0.12,1.72,1.57,3.06,3.29,3.06s3.17-1.35,3.29-3.06
				l0-0.06l0-0.06l0.16-5.83c0.1-1.08,0.96-1.94,2.04-2.04l5.83-0.16l0.06,0l0.06,0c1.72-0.12,3.06-1.57,3.06-3.29
				c0-1.72-1.35-3.17-3.06-3.29l-0.06,0l-0.06,0l-5.83-0.16c-1.08-0.1-1.94-0.96-2.04-2.04l-0.16-5.83l0-0.06l0-0.06
				C1620.69,201.84,1619.24,200.49,1617.52,200.49L1617.52,200.49z"/>
		</g>
		<path class="st0" d="M1629.45,214.99c0,0.38-0.29,0.7-0.68,0.73l-5.9,0.16c-2.39,0.17-4.3,2.08-4.47,4.47l-0.16,5.9
			c-0.03,0.38-0.35,0.68-0.73,0.68c-0.38,0-0.7-0.29-0.73-0.68l-0.16-5.9c-0.17-2.39-2.08-4.3-4.47-4.47l-5.9-0.16
			c-0.38-0.03-0.68-0.35-0.68-0.73c0-0.38,0.29-0.7,0.68-0.73l5.9-0.16c2.39-0.17,4.3-2.08,4.47-4.47l0.16-5.9
			c0.03-0.38,0.34-0.68,0.73-0.68c0.38,0,0.7,0.29,0.73,0.68l0.16,5.9c0.17,2.39,2.08,4.3,4.47,4.47l5.9,0.16
			C1629.16,214.29,1629.45,214.61,1629.45,214.99z"/>
		<path class="st6" d="M1623.58,214.83v0.33c0,0.39-0.31,0.71-0.7,0.72l0,0c-2.4,0.06-4.41,2.07-4.47,4.47l0,0
			c-0.01,0.39-0.33,0.7-0.72,0.7h-0.33c-0.39,0-0.71-0.31-0.72-0.7v0c-0.06-2.4-2.07-4.41-4.47-4.47l0,0
			c-0.39-0.01-0.7-0.33-0.7-0.72v-0.33c0-0.39,0.31-0.71,0.7-0.72h0c2.4-0.06,4.41-2.07,4.47-4.47l0,0c0.01-0.39,0.33-0.7,0.72-0.7
			h0.33c0.39,0,0.71,0.31,0.72,0.7v0c0.06,2.4,2.07,4.41,4.47,4.47l0,0C1623.27,214.12,1623.58,214.44,1623.58,214.83z"/>
	</g>
</g>
</svg>
